<svg width="112" height="112" viewBox="0 0 112 112" fill="none" xmlns="http://www.w3.org/2000/svg">
<g>
<path d="M87.5 22.75H45.5C44.1076 22.75 42.7723 23.3031 41.7877 24.2877C40.8031 25.2723 40.25 26.6076 40.25 28V38.5C40.25 38.9641 40.4344 39.4093 40.7626 39.7374C41.0908 40.0656 41.5359 40.25 42 40.25H91C91.4641 40.25 91.9092 40.0656 92.2374 39.7374C92.5656 39.4093 92.75 38.9641 92.75 38.5V28C92.75 26.6076 92.1969 25.2723 91.2123 24.2877C90.2277 23.3031 88.8924 22.75 87.5 22.75Z" fill="#AF70FF"/>
<path d="M87.5 50.75C87.0359 50.75 86.5908 50.5656 86.2626 50.2374C85.9344 49.9092 85.75 49.4641 85.75 49V43.75H47.25V49C47.25 49.4641 47.0656 49.9092 46.7374 50.2374C46.4093 50.5656 45.9641 50.75 45.5 50.75C39.4685 50.7569 33.6859 53.156 29.421 57.421C25.156 61.6859 22.7569 67.4685 22.75 73.5V105C22.75 106.392 23.3031 107.728 24.2877 108.712C25.2723 109.697 26.6076 110.25 28 110.25H105C106.392 110.25 107.728 109.697 108.712 108.712C109.697 107.728 110.25 106.392 110.25 105V73.5C110.243 67.4685 107.844 61.6859 103.579 57.421C99.3141 53.156 93.5315 50.7569 87.5 50.75ZM96.25 96.25C96.25 96.7141 96.0656 97.1592 95.7374 97.4874C95.4092 97.8156 94.9641 98 94.5 98H38.5C38.0359 98 37.5908 97.8156 37.2626 97.4874C36.9344 97.1592 36.75 96.7141 36.75 96.25V68.25C36.75 67.7859 36.9344 67.3407 37.2626 67.0126C37.5908 66.6844 38.0359 66.5 38.5 66.5H94.5C94.9641 66.5 95.4092 66.6844 95.7374 67.0126C96.0656 67.3407 96.25 67.7859 96.25 68.25V96.25Z" fill="#AF70FF"/>
<path d="M40.25 70H92.75V94.5H40.25V70Z" fill="#AF70FF"/>
<path d="M83.916 1.75001C70.2607 1.74162 56.8728 5.53489 45.2515 12.705C44.9977 12.8619 44.7883 13.0812 44.6431 13.3418C44.498 13.6025 44.4218 13.8959 44.422 14.1943V20.51L41.188 17.276C40.887 16.9749 40.4865 16.7939 40.0616 16.7668C39.6367 16.7398 39.2165 16.8685 38.8797 17.129C34.0429 20.8696 29.6878 25.1946 25.914 30.0055C25.6725 30.3136 25.5412 30.6938 25.5412 31.0853V39.3908L23.4097 37.261C23.2218 37.0731 22.9934 36.9305 22.7421 36.844C22.4908 36.7575 22.2231 36.7294 21.9593 36.7617C21.6955 36.7941 21.4426 36.8862 21.2196 37.0309C20.9967 37.1756 20.8097 37.3692 20.6727 37.597C13.953 48.8245 10.349 61.6408 10.2322 74.725L2.26273 82.6893C1.94395 83.0193 1.76756 83.4614 1.77155 83.9202C1.77554 84.3791 1.95958 84.818 2.28405 85.1424C2.60851 85.4669 3.04743 85.651 3.50628 85.6549C3.96512 85.6589 4.40718 85.4825 4.73723 85.1638L12.7067 77.1943C25.7891 77.0765 38.6036 73.4726 49.8295 66.7538C50.0574 66.617 50.2511 66.43 50.396 66.2072C50.5409 65.9844 50.6331 65.7314 50.6657 65.4676C50.6983 65.2038 50.6703 64.936 50.5839 64.6847C50.4975 64.4333 50.355 64.2049 50.1672 64.0168L48.0357 61.8853H56.35C56.7421 61.8857 57.1229 61.7544 57.4315 61.5125C66.2347 54.6235 73.3533 45.82 78.2472 35.7699C83.1411 25.7198 85.6818 14.6871 85.6765 3.50876C85.6742 3.04272 85.4879 2.59645 85.1582 2.26707C84.8285 1.93769 84.382 1.75185 83.916 1.75001ZM55.741 58.3853H43.8112C43.4652 58.3853 43.1269 58.488 42.8392 58.6803C42.5515 58.8726 42.3272 59.1459 42.1948 59.4656C42.0624 59.7853 42.0277 60.1371 42.0952 60.4766C42.1627 60.816 42.3293 61.1278 42.574 61.3725L46.074 64.8725C36.9369 69.9466 26.7803 72.9124 16.3485 73.5525L70.322 19.579C70.4891 19.4176 70.6224 19.2245 70.7141 19.011C70.8059 18.7975 70.8541 18.5678 70.8562 18.3355C70.8582 18.1031 70.8139 17.8727 70.7259 17.6576C70.6379 17.4425 70.508 17.2471 70.3437 17.0828C70.1794 16.9185 69.984 16.7886 69.7689 16.7006C69.5538 16.6126 69.3234 16.5683 69.091 16.5703C68.8587 16.5723 68.629 16.6206 68.4155 16.7123C68.202 16.804 68.0089 16.9374 67.8475 17.1045L13.874 71.078C14.5109 60.6443 17.4743 50.4853 22.547 41.3455L26.047 44.8455C26.2917 45.0902 26.6035 45.2568 26.9429 45.3243C27.2823 45.3918 27.6341 45.3571 27.9539 45.2247C28.2736 45.0923 28.5469 44.868 28.7392 44.5803C28.9315 44.2926 29.0342 43.9543 29.0342 43.6083V31.6925C32.2232 27.7004 35.8353 24.0654 39.8072 20.8513L44.9277 25.9718C45.1725 26.2164 45.4843 26.383 45.8237 26.4505C46.1631 26.518 46.5149 26.4834 46.8346 26.3509C47.1543 26.2185 47.4276 25.9943 47.6199 25.7066C47.8122 25.4188 47.9149 25.0806 47.915 24.7345V15.1795C58.2819 8.97825 70.0772 5.56536 82.1537 5.27276C81.9046 15.5198 79.4093 25.5873 74.8439 34.7645C70.2786 43.9418 63.7545 52.0051 55.7322 58.3853H55.741Z" fill="#151A6A"/>
</g>
</svg>
