<svg width="145" height="145" viewBox="0 0 145 145" fill="none" xmlns="http://www.w3.org/2000/svg">
<path d="M72.5 145C112.541 145 145 112.541 145 72.5C145 32.4594 112.541 0 72.5 0C32.4594 0 0 32.4594 0 72.5C0 112.541 32.4594 145 72.5 145Z" fill="#FF475A"/>
<path d="M145 72.5C145 66.1934 144.195 60.0748 142.681 54.2413L117.881 29.4407L101.544 45.7772L89.6029 33.836L72.4785 72.3137L51.0661 67.664L65.3616 81.9598L32.3254 114.996L61.5007 144.171C65.0874 144.717 68.7606 145 72.5 145C112.541 145 145 112.541 145 72.5Z" fill="#D1093A"/>
<path d="M73.2089 86.2368L79.6571 96.2556C83.2957 94.3692 86.7414 92.1829 89.9643 89.7267L86.3486 75.0882L95.9096 84.6491C103.66 77.2465 109.706 68.0823 113.485 57.7185L106.325 51.9502L116.035 49.0944C117.469 42.8486 118.119 36.2627 117.881 29.4407V29.4404C111.059 29.2028 104.473 29.8527 98.227 31.2863L95.3712 40.9959L89.6032 33.836C79.2394 37.6153 70.0752 43.6611 62.6726 51.4119L72.2335 60.9728L57.5953 57.3569C55.1391 60.5794 52.9528 64.0254 51.0663 67.664L61.0852 74.1123L47.8653 74.7645C44.3709 83.8015 42.6156 93.7873 42.9832 104.338V104.339C53.5342 104.706 63.5199 102.951 72.5572 99.4564L73.2089 86.2368Z" fill="white"/>
<path d="M117.881 29.4407C117.877 29.4407 117.873 29.4407 117.869 29.4404L42.9826 104.327C42.9826 104.331 42.9826 104.334 42.9829 104.338V104.339C53.5339 104.706 63.5196 102.951 72.5569 99.4564L73.2091 86.2365L79.6574 96.2551C83.296 94.3687 86.7417 92.1823 89.9646 89.7261L86.3486 75.0885L95.9096 84.6494C103.66 77.2468 109.706 68.0826 113.485 57.7191L106.325 51.9508L116.035 49.095C117.469 42.8489 118.118 36.263 117.881 29.4407Z" fill="#E9EDF5"/>
<path d="M104.29 43.0319C102.691 41.434 100.101 41.434 98.5029 43.0319L37.9659 103.569L43.7526 109.355L104.29 48.8186C105.888 47.2207 105.888 44.63 104.29 43.0319Z" fill="#E9EDF5"/>
<path d="M104.29 43.0319C104.288 43.0299 104.285 43.0282 104.283 43.0259L40.8535 106.456L43.7526 109.355L104.29 48.8185C105.888 47.2204 105.888 44.63 104.29 43.0319Z" fill="#CDD2E1"/>
<path d="M32.3254 109.209C30.7275 110.807 30.7275 113.398 32.3254 114.996C33.9232 116.594 36.5142 116.594 38.1121 114.996L44.7673 108.34L38.9807 102.554L32.3254 109.209Z" fill="#333940"/>
<path d="M32.32 114.99C32.322 114.992 32.3237 114.994 32.3257 114.995C33.9235 116.594 36.5145 116.594 38.1123 114.995L44.7676 108.34L41.8685 105.441L32.32 114.99Z" fill="#181B1E"/>
</svg>
