<svg width="24" height="24" viewBox="0 0 24 24" fill="none" xmlns="http://www.w3.org/2000/svg">
<path d="M24 12C24 11.5343 23.6225 11.1569 23.1569 11.1569L2.85294 11.1569L8.17157 5.84316C8.33334 5.6814 8.41667 5.46571 8.41667 5.25002C8.41667 5.03434 8.33334 4.81865 8.17157 4.65689C7.84314 4.32846 7.30882 4.32846 6.98039 4.65689L0.235298 11.4069C-0.0784283 11.7206 -0.0784283 12.2794 0.235298 12.5981L6.9853 19.3432C7.31373 19.6716 7.84804 19.6716 8.17647 19.3432C8.5049 19.0147 8.5049 18.4804 8.17647 18.152L2.86275 12.8383L23.1618 12.8383C23.6275 12.8432 24 12.4657 24 12Z" fill="#545454"/>
</svg>
