<svg width="24" height="24" viewBox="0 0 24 24" fill="none" xmlns="http://www.w3.org/2000/svg">
<g clip-path="url(#clip0)">
<path d="M0.568955 5.32462C0.62679 5.34373 0.689836 5.35706 0.761619 5.35706C8.13865 5.36472 15.5147 5.63852 22.8908 5.43089C22.9871 5.42813 23.0711 5.40662 23.143 5.37131C23.3101 5.32165 23.4595 5.20343 23.5337 4.99748C23.5366 4.98982 23.5384 4.98164 23.5412 4.97388C23.5843 4.89244 23.6133 4.80073 23.6266 4.70345C23.8139 4.09961 23.9234 3.47773 23.9973 2.8491C24.008 2.75857 23.9867 2.67335 23.9473 2.59564C23.8816 2.37682 23.7018 2.19407 23.4074 2.18523C15.8611 1.95706 8.3047 1.75407 0.761619 2.18523C0.737862 2.1864 0.717221 2.19197 0.695201 2.19534C0.468561 2.19907 0.25495 2.32583 0.192567 2.61833C0.0413892 3.32706 -0.0444948 4.04269 0.0237117 4.76665C0.0551327 5.10058 0.306143 5.28661 0.568955 5.32462ZM1.25592 3.34188C8.36703 2.96125 15.4898 3.12913 22.6038 3.34162C22.5696 3.6475 22.5341 3.95298 22.4983 4.2585C15.3938 4.44258 8.28947 4.19561 1.18475 4.1788C1.18925 3.89846 1.2126 3.62007 1.25592 3.34188Z" fill="#545454"/>
<path d="M18.6104 13.6292C18.7822 13.4595 18.8496 13.2045 18.6686 12.9414C18.6421 12.903 18.6128 12.868 18.5858 12.8301C18.585 12.8293 18.5847 12.828 18.584 12.8272C16.8149 10.3036 14.447 8.41055 11.9658 6.62027C11.8789 6.55748 11.7929 6.52478 11.71 6.51288C11.5483 6.40002 11.3365 6.38004 11.1213 6.54374C8.64754 8.42624 6.65555 10.7638 5.41036 13.6279C5.27083 13.9485 5.40689 14.2495 5.62663 14.4197C5.76023 14.5515 5.94809 14.6327 6.17575 14.6005L8.66 14.2454C8.60472 15.8998 8.54924 17.4471 8.49288 19.7743C8.47424 19.8241 8.45993 19.8775 8.4562 19.9385C8.42779 20.394 8.3977 20.8494 8.36899 21.305C8.25317 21.6728 8.42882 22.1165 8.91198 22.0633C10.8669 21.8485 12.8195 21.7701 14.7853 21.8345C14.8569 21.8368 14.9197 21.8259 14.9783 21.8095C15.3016 21.8347 15.6378 21.6417 15.6246 21.2243C15.554 19.0494 15.4819 16.1462 15.4092 13.9717C16.3193 13.9133 17.2292 13.8642 18.1416 13.8599C18.3583 13.8585 18.5132 13.7636 18.6104 13.6292ZM14.7855 12.7915C14.4379 12.8149 14.2446 13.0698 14.2062 13.341C14.1854 13.4048 14.1727 13.4743 14.1753 13.5542C14.2457 15.6627 14.3154 18.4997 14.3839 20.6079C13.0828 20.5783 11.7868 20.6157 10.4914 20.7089C10.5163 20.6512 10.5336 20.5874 10.5373 20.514C10.7052 17.1509 10.6301 16.4411 10.6258 13.0754C10.6256 12.7381 10.3678 12.5676 10.1064 12.5622C10.0501 12.5464 9.98847 12.5378 9.91725 12.5441C9.27085 12.5985 8.62291 12.6235 7.97549 12.6574C8.98561 10.913 10.2643 9.37985 11.7984 8.04919C11.8085 8.04035 11.8152 8.03054 11.8245 8.02155C13.6997 9.39503 15.5044 10.8544 16.9541 12.6689C16.2311 12.6981 15.5083 12.7432 14.7855 12.7915Z" fill="#545454"/>
</g>
<defs>
<clipPath id="clip0">
<rect width="24" height="24" fill="white"/>
</clipPath>
</defs>
</svg>
