<svg width="100" height="100" viewBox="0 0 100 100" fill="none" xmlns="http://www.w3.org/2000/svg">
<path d="M82.7868 37.7048H67.6737L65.3246 28.3147C64.7787 26.1229 62.8147 24.5901 60.5541 24.5901H39.4459C37.1852 24.5901 35.2213 26.1229 34.6737 28.3147L32.3262 37.7048H17.2131C12.6934 37.7048 9.01636 41.3819 9.01636 45.9016V81.9671C9.01636 86.4868 12.6934 90.1639 17.2131 90.1639H82.7868C87.3065 90.1639 90.9836 86.4868 90.9836 81.9671V45.9016C90.9836 41.3819 87.3065 37.7048 82.7868 37.7048ZM87.7049 81.9671C87.7049 84.6786 85.4983 86.8852 82.7868 86.8852H17.2131C14.5016 86.8852 12.295 84.6786 12.295 81.9671V45.9016C12.295 43.1901 14.5016 40.9835 17.2131 40.9835H33.6065C34.359 40.9835 35.0131 40.4721 35.1967 39.7425L37.8541 29.1114C38.0377 28.3803 38.6918 27.8688 39.4459 27.8688H60.5557C61.3082 27.8688 61.9623 28.3803 62.1459 29.1114L64.8032 39.7425C64.9868 40.4721 65.6409 40.9835 66.3934 40.9835H82.7868C85.4983 40.9835 87.7049 43.1901 87.7049 45.9016V81.9671Z" fill="black"/>
<path d="M50 44.2622C39.1525 44.2622 30.3279 53.0868 30.3279 63.9343C30.3279 74.7819 39.1525 83.6065 50 83.6065C60.8476 83.6065 69.6721 74.7819 69.6721 63.9343C69.6721 53.0868 60.8476 44.2622 50 44.2622ZM50 80.3278C40.9607 80.3278 33.6066 72.9737 33.6066 63.9343C33.6066 54.895 40.9607 47.5409 50 47.5409C59.0394 47.5409 66.3935 54.895 66.3935 63.9343C66.3935 72.9737 59.0394 80.3278 50 80.3278Z" fill="black"/>
<path d="M50 50.8198C42.7689 50.8198 36.8853 56.7034 36.8853 63.9346C36.8853 71.1657 42.7689 77.0493 50 77.0493C57.2312 77.0493 63.1148 71.1657 63.1148 63.9346C63.1148 56.7034 57.2312 50.8198 50 50.8198ZM50 73.7706C44.5754 73.7706 40.1639 69.3592 40.1639 63.9346C40.1639 58.51 44.5754 54.0985 50 54.0985C55.4246 54.0985 59.8361 58.51 59.8361 63.9346C59.8361 69.3592 55.4246 73.7706 50 73.7706Z" fill="black"/>
<path d="M2.45905 16.3933C1.55249 16.3933 0.819702 17.1277 0.819702 18.0327V34.4261H4.09839V19.672H18.8525V16.3933H2.45905Z" fill="black"/>
<path d="M95.9017 81.967V96.7211H81.1476V99.9998H97.541C98.4476 99.9998 99.1804 99.2654 99.1804 98.3605V81.967H95.9017Z" fill="black"/>
<path d="M4.09839 96.7211V81.967H0.819702V98.3605C0.819702 99.2654 1.55249 99.9998 2.45905 99.9998H18.8525V96.7211H4.09839Z" fill="black"/>
<path d="M25.4098 44.2622H17.2131C16.3065 44.2622 15.5737 44.9966 15.5737 45.9016V54.0983C15.5737 55.0032 16.3065 55.7376 17.2131 55.7376H25.4098C26.3164 55.7376 27.0491 55.0032 27.0491 54.0983V45.9016C27.0491 44.9966 26.3164 44.2622 25.4098 44.2622ZM23.7705 52.4589H18.8524V47.5409H23.7705V52.4589Z" fill="black"/>
<path d="M97.541 9.83613C93.9246 9.83613 90.9836 6.89514 90.9836 3.27875C90.9836 2.37383 90.2508 1.6394 89.3442 1.6394C88.4377 1.6394 87.7049 2.37383 87.7049 3.27875C87.7049 6.89514 84.7639 9.83613 81.1475 9.83613C80.241 9.83613 79.5082 10.5706 79.5082 11.4755C79.5082 12.3804 80.241 13.1148 81.1475 13.1148C84.7639 13.1148 87.7049 16.0558 87.7049 19.6722C87.7049 20.5771 88.4377 21.3115 89.3442 21.3115C90.2508 21.3115 90.9836 20.5771 90.9836 19.6722C90.9836 16.0558 93.9246 13.1148 97.541 13.1148C98.4475 13.1148 99.1803 12.3804 99.1803 11.4755C99.1803 10.5706 98.4475 9.83613 97.541 9.83613ZM89.3442 14.241C88.6164 13.146 87.6737 12.2033 86.5787 11.4755C87.6737 10.7476 88.6164 9.80498 89.3442 8.7099C90.0721 9.80498 91.0147 10.7476 92.1098 11.4755C91.0147 12.2033 90.0721 13.146 89.3442 14.241Z" fill="black"/>
<path d="M82.7869 19.6721C79.1705 19.6721 76.2296 16.7311 76.2296 13.1147C76.2296 12.2098 75.4968 11.4753 74.5902 11.4753C73.6837 11.4753 72.9509 12.2098 72.9509 13.1147C72.9509 16.7311 70.0099 19.6721 66.3935 19.6721C65.4869 19.6721 64.7542 20.4065 64.7542 21.3114C64.7542 22.2163 65.4869 22.9507 66.3935 22.9507C70.0099 22.9507 72.9509 25.8917 72.9509 29.5081C72.9509 30.413 73.6837 31.1475 74.5902 31.1475C75.4968 31.1475 76.2296 30.413 76.2296 29.5081C76.2296 25.8917 79.1705 22.9507 82.7869 22.9507C83.6935 22.9507 84.4263 22.2163 84.4263 21.3114C84.4263 20.4065 83.6935 19.6721 82.7869 19.6721ZM74.5902 24.077C73.8623 22.9819 72.9197 22.0409 71.8246 21.3114C72.9197 20.5835 73.8623 19.6409 74.5902 18.5458C75.3181 19.6409 76.2607 20.5819 77.3558 21.3114C76.2607 22.0393 75.3197 22.9819 74.5902 24.077Z" fill="black"/>
<path d="M68.0328 8.19672C64.4164 8.19672 61.4754 5.25574 61.4754 1.63934C61.4754 0.734426 60.7426 0 59.8361 0C58.9295 0 58.1967 0.734426 58.1967 1.63934C58.1967 5.25574 55.2557 8.19672 51.6393 8.19672C50.7328 8.19672 50 8.93115 50 9.83607C50 10.741 50.7328 11.4754 51.6393 11.4754C55.2557 11.4754 58.1967 14.4164 58.1967 18.0328C58.1967 18.9377 58.9295 19.6721 59.8361 19.6721C60.7426 19.6721 61.4754 18.9377 61.4754 18.0328C61.4754 14.4164 64.4164 11.4754 68.0328 11.4754C68.9393 11.4754 69.6721 10.741 69.6721 9.83607C69.6721 8.93115 68.9393 8.19672 68.0328 8.19672ZM59.8361 12.6016C59.1082 11.5066 58.1656 10.5639 57.0705 9.83607C58.1656 9.1082 59.1082 8.16557 59.8361 7.07049C60.5639 8.16557 61.5066 9.1082 62.6016 9.83607C61.5066 10.5639 60.5639 11.5066 59.8361 12.6016Z" fill="black"/>
</svg>
