<svg width="25" height="25" viewBox="0 0 25 25" fill="none" xmlns="http://www.w3.org/2000/svg">
<g clip-path="url(#clip0)">
<path d="M15.5277 10.3439C14.7067 10.3439 13.9093 10.5031 13.1577 10.817C12.9089 10.921 12.7915 11.207 12.8954 11.4558C12.9993 11.7047 13.2853 11.8219 13.5342 11.7181C14.1659 11.4542 14.8366 11.3204 15.5277 11.3204C18.3817 11.3204 20.7035 13.6423 20.7035 16.4962C20.7035 19.3501 18.3817 21.672 15.5277 21.672C12.6738 21.672 10.3519 19.3501 10.3519 16.4962C10.3519 15.8062 10.4853 15.1364 10.7485 14.5055C10.8523 14.2566 10.7346 13.9707 10.4858 13.8669C10.237 13.7632 9.95095 13.8807 9.84714 14.1296C9.53411 14.8802 9.37537 15.6764 9.37537 16.4962C9.37537 19.8886 12.1353 22.6486 15.5277 22.6486C18.9201 22.6486 21.6801 19.8886 21.6801 16.4962C21.6801 13.1038 18.9201 10.3439 15.5277 10.3439Z" fill="black"/>
<path d="M15.5277 20.5001C17.7355 20.5001 19.5316 18.704 19.5316 16.4962C19.5316 14.2885 17.7355 12.4923 15.5277 12.4923C13.3199 12.4923 11.5238 14.2885 11.5238 16.4962C11.5238 18.704 13.32 20.5001 15.5277 20.5001ZM15.5277 13.4689C17.197 13.4689 18.5551 14.827 18.5551 16.4962C18.5551 18.1655 17.197 19.5236 15.5277 19.5236C13.8584 19.5236 12.5004 18.1655 12.5004 16.4962C12.5004 14.8269 13.8584 13.4689 15.5277 13.4689Z" fill="black"/>
<path d="M22.5236 8.00012H21.0383L19.3334 5.11501C19.2456 4.96633 19.0857 4.87512 18.9131 4.87512H12.1422C11.9695 4.87512 11.8097 4.96633 11.7219 5.11501L10.017 8.00012H7.22656V7.41418C7.22656 6.4449 6.43804 5.65637 5.46875 5.65637C4.49946 5.65637 3.71094 6.4449 3.71094 7.41418V8.00012H2.47637C1.11089 8.00012 0 9.11101 0 10.4765V22.5159C0 23.8814 1.11089 24.9923 2.47637 24.9923H22.5236C23.8891 24.9923 24.9999 23.8814 24.9999 22.5159V10.4765C25 9.11101 23.8891 8.00012 22.5236 8.00012ZM12.4208 5.85168H18.6344L19.904 8.00012H11.1513L12.4208 5.85168ZM4.6875 7.41418C4.6875 6.98342 5.03799 6.63293 5.46875 6.63293C5.89951 6.63293 6.25 6.98342 6.25 7.41418V8.00012H4.6875V7.41418ZM24.0234 22.5159C24.0234 23.3429 23.3506 24.0157 22.5236 24.0157H2.47637C1.64937 24.0157 0.976562 23.3429 0.976562 22.5159V10.4765C0.976562 9.64949 1.64937 8.97668 2.47637 8.97668H22.5236C23.3506 8.97668 24.0234 9.64949 24.0234 10.4765V22.5159H24.0234Z" fill="black"/>
<path d="M15.5277 15.5441C16.0528 15.5441 16.4799 15.9712 16.4799 16.4962C16.4799 16.7659 16.6985 16.9845 16.9681 16.9845C17.2378 16.9845 17.4564 16.7659 17.4564 16.4962C17.4564 15.4327 16.5912 14.5675 15.5277 14.5675C15.258 14.5675 15.0394 14.7862 15.0394 15.0558C15.0394 15.3254 15.258 15.5441 15.5277 15.5441Z" fill="black"/>
<path d="M15.5277 3.59048C15.7974 3.59048 16.016 3.37183 16.016 3.1022V0.496094C16.016 0.226465 15.7974 0.0078125 15.5277 0.0078125C15.258 0.0078125 15.0394 0.226416 15.0394 0.496094V3.1022C15.0394 3.37188 15.258 3.59048 15.5277 3.59048Z" fill="black"/>
<path d="M17.8511 3.5905C17.976 3.5905 18.101 3.5428 18.1963 3.44748L19.9879 1.65593C20.1786 1.46526 20.1786 1.15608 19.9878 0.965356C19.7972 0.774731 19.488 0.774731 19.2973 0.965356L17.5058 2.75696C17.3151 2.94763 17.3151 3.25681 17.5058 3.44753C17.6012 3.54285 17.7261 3.5905 17.8511 3.5905Z" fill="black"/>
<path d="M12.8588 3.44753C12.9542 3.54284 13.0792 3.59055 13.2041 3.59055C13.3291 3.59055 13.4541 3.54284 13.5494 3.44753C13.7401 3.25685 13.7401 2.94767 13.5494 2.75695L11.7579 0.965399C11.5672 0.774823 11.258 0.774774 11.0673 0.965399C10.8767 1.15607 10.8766 1.46525 11.0673 1.65598L12.8588 3.44753Z" fill="black"/>
<path d="M6.73828 12.004H4.19922C3.92954 12.004 3.71094 12.2227 3.71094 12.4923C3.71094 12.762 3.92954 12.9806 4.19922 12.9806H6.73828C7.00796 12.9806 7.22656 12.762 7.22656 12.4923C7.22656 12.2226 7.00796 12.004 6.73828 12.004Z" fill="black"/>
<path d="M11.5215 12.9805C11.6499 12.9805 11.7759 12.9283 11.8667 12.8375C11.9575 12.7466 12.0098 12.6211 12.0098 12.4922C12.0098 12.3638 11.9575 12.2379 11.8667 12.147C11.7759 12.0563 11.6499 12.004 11.5215 12.004C11.3931 12.004 11.2671 12.0562 11.1763 12.147C11.085 12.2379 11.0332 12.3639 11.0332 12.4922C11.0332 12.6207 11.085 12.7466 11.1763 12.8375C11.2671 12.9283 11.3926 12.9805 11.5215 12.9805Z" fill="black"/>
</g>
<defs>
<clipPath id="clip0">
<rect width="25" height="25" fill="white"/>
</clipPath>
</defs>
</svg>
