<svg width="32" height="32" viewBox="0 0 32 32" fill="none" xmlns="http://www.w3.org/2000/svg">
<path d="M16 0C7.17371 0 0 7.17371 0 16C0 24.8263 7.17371 32 16 32C24.8263 32 32 24.8263 32 16C32 7.17371 24.8263 0 16 0ZM16 30.385C8.07512 30.385 1.61502 23.9249 1.61502 16C1.61502 8.07512 8.07512 1.61502 16 1.61502C23.9249 1.61502 30.385 8.07512 30.385 16C30.385 23.9249 23.9249 30.385 16 30.385Z" fill="white"/>
<path d="M17.1268 15.9249L21.8216 11.23C22.1221 10.9296 22.1221 10.4038 21.8216 10.1033C21.5211 9.80281 20.9953 9.80281 20.6948 10.1033L16 14.7981L11.3052 10.1033C11.0047 9.80281 10.4789 9.80281 10.1784 10.1033C9.87795 10.4038 9.87795 10.9296 10.1784 11.23L14.8733 15.9249L10.1784 20.5822C9.87795 20.8826 9.87795 21.4084 10.1784 21.7089C10.3287 21.8591 10.554 21.9343 10.7418 21.9343C10.9296 21.9343 11.1549 21.8591 11.3052 21.7089L16 17.0141L20.6948 21.7089C20.8451 21.8591 21.0704 21.9343 21.2582 21.9343C21.446 21.9343 21.6714 21.8591 21.8216 21.7089C22.1221 21.4084 22.1221 20.8826 21.8216 20.5822L17.1268 15.9249Z" fill="white"/>
</svg>
