<svg width="11" height="11" viewBox="0 0 11 11" fill="none" xmlns="http://www.w3.org/2000/svg">
<g clip-path="url(#clip0)">
<path d="M9.06787 3.10258H1.93216C1.85496 3.09602 1.77846 3.12152 1.72062 3.17308C1.66375 3.22771 1.6374 3.3068 1.65011 3.38462L2.38342 9.7729C2.46942 10.4772 3.07 11.005 3.77952 10.9998H7.33327C8.06277 11.0102 8.67726 10.4571 8.7435 9.7306L9.34988 3.35641C9.35364 3.28804 9.32799 3.22132 9.27938 3.17308C9.22156 3.12152 9.14506 3.09602 9.06787 3.10258ZM8.17944 9.7024C8.13511 10.1318 7.76467 10.4529 7.3333 10.4357H3.77955C3.35593 10.4529 2.9918 10.1381 2.94751 9.71649L2.24241 3.66666H8.75761L8.17944 9.7024Z" fill="black"/>
<path d="M10.0973 1.26923H7.19222V0.817942C7.20788 0.382067 6.86723 0.0160495 6.43136 0.000393818C6.41705 -0.000119039 6.40272 -0.000254001 6.38841 1.59236e-05H4.61152C4.17543 -0.00805483 3.81541 0.338906 3.80734 0.774997C3.80707 0.789303 3.8072 0.803636 3.80771 0.817942V1.2692H0.90265C0.746876 1.2692 0.620605 1.39547 0.620605 1.55125C0.620605 1.70702 0.746876 1.83329 0.90265 1.83329H10.0973C10.2531 1.83329 10.3793 1.70702 10.3793 1.55125C10.3793 1.39547 10.253 1.26923 10.0973 1.26923ZM6.62813 0.817942V1.2692H4.37178V0.817942C4.35588 0.694343 4.4432 0.581272 4.5668 0.565373C4.58162 0.563457 4.5966 0.563052 4.6115 0.564105H6.38838C6.51268 0.555305 6.6206 0.648915 6.6294 0.773242C6.63048 0.788142 6.63005 0.803123 6.62813 0.817942Z" fill="black"/>
</g>
<defs>
<clipPath id="clip0">
<rect width="11" height="11" fill="white"/>
</clipPath>
</defs>
</svg>
