<svg width="16" height="16" viewBox="0 0 16 16" fill="none" xmlns="http://www.w3.org/2000/svg">
<g clip-path="url(#clip0)">
<path d="M14.7674 10.0511C14.5473 10.0511 14.3689 10.2295 14.3689 10.4496V13.9877C14.3681 14.6477 13.8334 15.1825 13.1734 15.1831H1.99241C1.33243 15.1825 0.797744 14.6477 0.796966 13.9877V3.60362C0.797744 2.94379 1.33243 2.40895 1.99241 2.40817H5.53051C5.75061 2.40817 5.92899 2.22979 5.92899 2.00969C5.92899 1.78975 5.75061 1.61121 5.53051 1.61121H1.99241C0.89254 1.61245 0.00124526 2.50375 0 3.60362V13.9878C0.00124526 15.0877 0.89254 15.979 1.99241 15.9803H13.1734C14.2733 15.979 15.1646 15.0877 15.1659 13.9878V10.4496C15.1659 10.2295 14.9875 10.0511 14.7674 10.0511Z" fill="black"/>
<path d="M15.0079 0.585896C14.3076 -0.114407 13.1722 -0.114407 12.4719 0.585896L5.36272 7.69508C5.314 7.7438 5.27882 7.8042 5.26046 7.87051L4.32558 11.2456C4.28713 11.384 4.3262 11.5322 4.42769 11.6338C4.52933 11.7353 4.67752 11.7744 4.8159 11.7361L8.19102 10.8011C8.25733 10.7827 8.31772 10.7475 8.36644 10.6988L15.4755 3.58946C16.1747 2.88869 16.1747 1.75426 15.4755 1.05349L15.0079 0.585896ZM6.23098 7.95409L12.0493 2.13562L13.9258 4.01207L8.10728 9.83054L6.23098 7.95409ZM5.85616 8.70623L7.35529 10.2055L5.28162 10.7801L5.85616 8.70623ZM14.912 3.02598L14.4894 3.44859L12.6128 1.57199L13.0355 1.14938C13.4245 0.760388 14.0553 0.760388 14.4442 1.14938L14.912 1.61697C15.3004 2.00643 15.3004 2.63668 14.912 3.02598Z" fill="black"/>
</g>
<defs>
<clipPath id="clip0">
<rect width="16" height="16" fill="white"/>
</clipPath>
</defs>
</svg>
