<svg width="12" height="12" viewBox="0 0 12 12" fill="none" xmlns="http://www.w3.org/2000/svg">
<g clip-path="url(#clip0)">
<path d="M1.20001 7.19994C1.86275 7.19994 2.40002 6.66268 2.40002 5.99993C2.40002 5.33719 1.86275 4.79993 1.20001 4.79993C0.537262 4.79993 0 5.33719 0 5.99993C0 6.66268 0.537262 7.19994 1.20001 7.19994Z" fill="#545454"/>
<path d="M6.00006 7.19994C6.66281 7.19994 7.20007 6.66268 7.20007 5.99993C7.20007 5.33719 6.66281 4.79993 6.00006 4.79993C5.33731 4.79993 4.80005 5.33719 4.80005 5.99993C4.80005 6.66268 5.33731 7.19994 6.00006 7.19994Z" fill="#545454"/>
<path d="M10.8 7.19994C11.4627 7.19994 12 6.66268 12 5.99993C12 5.33719 11.4627 4.79993 10.8 4.79993C10.1372 4.79993 9.59998 5.33719 9.59998 5.99993C9.59998 6.66268 10.1372 7.19994 10.8 7.19994Z" fill="#545454"/>
</g>
<defs>
<clipPath id="clip0">
<rect width="12" height="12" fill="white"/>
</clipPath>
</defs>
</svg>
