<svg width="32" height="32" viewBox="0 0 32 32" fill="none" xmlns="http://www.w3.org/2000/svg">
<path d="M12.8476 31.1351H11.5762C11.4615 31.1351 11.3515 31.0896 11.2704 31.0085C11.1893 30.9274 11.1438 30.8174 11.1438 30.7027C11.1438 30.588 11.1893 30.478 11.2704 30.3969C11.3515 30.3158 11.4615 30.2703 11.5762 30.2703H12.8476C12.9622 30.2703 13.0722 30.3158 13.1533 30.3969C13.2344 30.478 13.28 30.588 13.28 30.7027C13.28 30.8174 13.2344 30.9274 13.1533 31.0085C13.0722 31.0896 12.9622 31.1351 12.8476 31.1351Z" fill="black"/>
<path d="M25.9459 31.1351H20.173C20.0583 31.1351 19.9483 31.0896 19.8672 31.0085C19.7861 30.9274 19.7405 30.8174 19.7405 30.7027C19.7405 30.588 19.7861 30.478 19.8672 30.3969C19.9483 30.3158 20.0583 30.2703 20.173 30.2703H25.9459C26.1798 30.27 26.4041 30.177 26.5695 30.0116C26.7349 29.8462 26.8279 29.622 26.8281 29.3881V16.2292C26.8284 15.9947 26.7358 15.7697 26.5704 15.6035C26.405 15.4373 26.1804 15.3435 25.9459 15.3427H6.23567C6.00062 15.3429 5.77528 15.4364 5.60908 15.6026C5.44288 15.7688 5.34941 15.9941 5.34918 16.2292V29.3881C5.34998 29.6226 5.44377 29.8471 5.60997 30.0125C5.77617 30.1779 6.0012 30.2706 6.23567 30.2703H8.54918C8.66387 30.2703 8.77386 30.3158 8.85495 30.3969C8.93605 30.478 8.98161 30.588 8.98161 30.7027C8.98161 30.8174 8.93605 30.9274 8.85495 31.0085C8.77386 31.0896 8.66387 31.1351 8.54918 31.1351H6.23567C5.77189 31.1352 5.32702 30.9514 4.99867 30.6238C4.67033 30.2963 4.48534 29.8519 4.48431 29.3881V16.2292C4.48489 15.7649 4.66959 15.3197 4.99791 14.9914C5.32622 14.6631 5.77135 14.4784 6.23567 14.4778H25.9459C26.4097 14.4789 26.8541 14.6639 27.1817 14.9922C27.5092 15.3205 27.6931 15.7654 27.693 16.2292V29.3881C27.6925 29.8513 27.5083 30.2954 27.1808 30.6229C26.8532 30.9505 26.4091 31.1347 25.9459 31.1351Z" fill="black"/>
<path d="M17.1416 31.1351H15.8746C15.7599 31.1351 15.6499 31.0896 15.5688 31.0085C15.4877 30.9274 15.4422 30.8174 15.4422 30.7027C15.4422 30.588 15.4877 30.478 15.5688 30.3969C15.6499 30.3158 15.7599 30.2703 15.8746 30.2703H17.1416C17.2563 30.2703 17.3663 30.3158 17.4474 30.3969C17.5285 30.478 17.5741 30.588 17.5741 30.7027C17.5741 30.8174 17.5285 30.9274 17.4474 31.0085C17.3663 31.0896 17.2563 31.1351 17.1416 31.1351Z" fill="black"/>
<path d="M23.5676 15.3427H8.61191C8.49722 15.3427 8.38723 15.2971 8.30613 15.216C8.22503 15.1349 8.17947 15.025 8.17947 14.9103V8.77535C8.17947 6.67736 9.0129 4.6653 10.4964 3.18179C11.9799 1.69829 13.992 0.864864 16.09 0.864864C18.188 0.864864 20.2 1.69829 21.6835 3.18179C23.167 4.6653 24.0004 6.67736 24.0004 8.77535V14.9103C24.0004 14.9671 23.9892 15.0234 23.9675 15.0759C23.9457 15.1283 23.9138 15.176 23.8736 15.2162C23.8334 15.2564 23.7857 15.2882 23.7332 15.3099C23.6807 15.3316 23.6244 15.3428 23.5676 15.3427ZM9.04391 14.4778H23.1352V8.77535C23.1352 6.90674 22.3928 5.11465 21.0715 3.79334C19.7502 2.47203 17.9581 1.72973 16.0895 1.72973C14.2209 1.72973 12.4288 2.47203 11.1075 3.79334C9.78621 5.11465 9.04391 6.90674 9.04391 8.77535V14.4778Z" fill="black"/>
<path d="M17.1243 26.7676H15.0573C14.8599 26.7672 14.6706 26.6885 14.5312 26.5487C14.3917 26.4089 14.3134 26.2195 14.3135 26.0221V24.1349C13.8216 23.7627 13.459 23.2453 13.2769 22.6559C13.0948 22.0664 13.1025 21.4347 13.2988 20.8499C13.4952 20.265 13.8702 19.7566 14.3711 19.3964C14.8719 19.0362 15.4733 18.8425 16.0902 18.8425C16.7071 18.8425 17.3084 19.0362 17.8093 19.3964C18.3101 19.7566 18.6852 20.265 18.8815 20.8499C19.0779 21.4347 19.0855 22.0664 18.9035 22.6559C18.7214 23.2453 18.3588 23.7627 17.8668 24.1349V26.0221C17.8671 26.2193 17.789 26.4086 17.6498 26.5484C17.5106 26.6882 17.3216 26.767 17.1243 26.7676ZM15.1784 25.9027H17.002V23.9092C17.002 23.8364 17.0204 23.7648 17.0555 23.701C17.0905 23.6372 17.1411 23.5832 17.2026 23.5442C17.5833 23.3033 17.8754 22.9452 18.0351 22.5239C18.1947 22.1025 18.2132 21.6408 18.0877 21.2081C17.9623 20.7753 17.6997 20.3951 17.3395 20.1244C16.9793 19.8538 16.5409 19.7075 16.0904 19.7075C15.6399 19.7075 15.2015 19.8538 14.8413 20.1244C14.4811 20.3951 14.2185 20.7753 14.0931 21.2081C13.9676 21.6408 13.9861 22.1025 14.1457 22.5239C14.3054 22.9452 14.5975 23.3033 14.9782 23.5442C15.0396 23.5833 15.0901 23.6372 15.1251 23.701C15.1601 23.7648 15.1784 23.8364 15.1784 23.9092V25.9027Z" fill="black"/>
</svg>
