<svg width="52" height="24" viewBox="0 0 52 24" fill="none" xmlns="http://www.w3.org/2000/svg">
<path d="M3.19542 20.9542C3.36727 21.0479 7.45664 23.25 12 23.25C16.9222 23.25 20.6612 21.0406 20.8179 20.9465C20.8735 20.9132 20.9194 20.8661 20.9513 20.8097C20.9832 20.7534 21 20.6897 21 20.625C21 17.5972 20.0715 14.8265 18.3857 12.823C17.2065 11.4214 15.7268 10.4661 14.0948 10.0264C15.0938 9.55095 15.9014 8.74989 16.3849 7.7548C16.8683 6.7597 16.999 5.62975 16.7553 4.5506C16.5116 3.47144 15.9081 2.50726 15.0439 1.81648C14.1798 1.12569 13.1063 0.74939 12 0.74939C10.8937 0.74939 9.82025 1.12569 8.95608 1.81648C8.09192 2.50726 7.48842 3.47144 7.24473 4.5506C7.00104 5.62975 7.13167 6.7597 7.61514 7.7548C8.09861 8.74989 8.90618 9.55095 9.90516 10.0264C8.2732 10.4661 6.79355 11.4216 5.61427 12.823C3.92845 14.8265 3 17.5972 3 20.625C3 20.6923 3.01815 20.7585 3.05254 20.8164C3.08692 20.8743 3.13628 20.9219 3.19542 20.9542ZM7.875 5.62498C7.875 4.80913 8.11693 4.0116 8.57019 3.33325C9.02345 2.6549 9.66769 2.12618 10.4214 1.81397C11.1752 1.50176 12.0046 1.42007 12.8047 1.57924C13.6049 1.7384 14.3399 2.13127 14.9168 2.70816C15.4937 3.28505 15.8866 4.02006 16.0457 4.82023C16.2049 5.6204 16.1232 6.4498 15.811 7.20354C15.4988 7.95729 14.9701 8.60153 14.2917 9.05479C13.6134 9.50805 12.8158 9.74998 12 9.74998C10.9064 9.74873 9.85787 9.31374 9.08455 8.54042C8.31124 7.7671 7.87624 6.71861 7.875 5.62498ZM6.18811 13.3059C7.71094 11.4964 9.77475 10.5 12 10.5C14.2253 10.5 16.2891 11.4964 17.8119 13.3059C19.3438 15.1264 20.2051 17.6409 20.2483 20.4062C19.4459 20.8406 16.1113 22.5 12 22.5C8.19797 22.5 4.61719 20.8308 3.75188 20.3974C3.79688 17.6354 4.65783 15.1245 6.18811 13.3059Z" fill="#545454"/>
<path d="M28 12C28 12.4657 28.3775 12.8431 28.8431 12.8431H49.1471L43.8284 18.1568C43.6667 18.3186 43.5833 18.5343 43.5833 18.75C43.5833 18.9657 43.6667 19.1813 43.8284 19.3431C44.1569 19.6715 44.6912 19.6715 45.0196 19.3431L51.7647 12.5931C52.0784 12.2794 52.0784 11.7206 51.7647 11.4019L45.0147 4.65685C44.6863 4.32841 44.152 4.32841 43.8235 4.65685C43.4951 4.98528 43.4951 5.51959 43.8235 5.84802L49.1373 11.1617H28.8382C28.3725 11.1568 28 11.5343 28 12Z" fill="#545454"/>
</svg>
