<svg width="12" height="12" viewBox="0 0 12 12" fill="none" xmlns="http://www.w3.org/2000/svg">
<path d="M11.25 0C6.16744 0 1.98694 3.91001 1.54395 8.87899C2.38845 7.68799 3.42296 6.54199 4.71446 5.2245C4.81046 5.1255 4.96946 5.12351 5.06797 5.22101C5.16647 5.3175 5.16797 5.47601 5.07146 5.57452C4.87695 5.77252 4.67947 5.97802 4.48095 6.18602C4.36744 6.30452 4.25644 6.42253 4.14746 6.53852C4.12747 6.56002 4.10745 6.58153 4.08746 6.60352C2.49146 8.31251 1.35045 9.79999 0.521934 11.6475C0.465426 11.7735 0.521934 11.9215 0.647442 11.978C0.680934 11.993 0.715434 12 0.749934 12C0.845442 12 0.936942 11.945 0.978426 11.8525C1.27343 11.195 1.61593 10.585 2.00093 9.9915C5.49293 9.90199 8.67143 7.95949 10.3374 4.86851C10.379 4.791 10.3769 4.69751 10.3319 4.6215C10.2864 4.5465 10.2049 4.5 10.1169 4.5H9.19095L10.8514 3.55099C10.9039 3.52099 10.9444 3.4725 10.964 3.4155C11.3199 2.3805 11.4999 1.3155 11.4999 0.250008C11.4999 0.112008 11.388 0 11.25 0Z" fill="white"/>
</svg>
