<svg width="28" height="28" viewBox="0 0 28 28" fill="none" xmlns="http://www.w3.org/2000/svg">
<path d="M28 28H0L28 0V28Z" fill="#545454"/>
<path d="M24.3749 14C20.1395 14 16.6557 17.2583 16.2866 21.3992C16.9903 20.4067 17.8524 19.4517 18.9287 18.3538C19.0087 18.2713 19.1412 18.2696 19.2233 18.3508C19.3054 18.4313 19.3066 18.5633 19.2262 18.6454C19.0641 18.8104 18.8995 18.9817 18.7341 19.155C18.6395 19.2538 18.547 19.3521 18.4562 19.4488C18.4395 19.4667 18.4228 19.4846 18.4062 19.5029C17.0762 20.9271 16.1253 22.1667 15.4349 23.7063C15.3878 23.8112 15.4349 23.9346 15.5395 23.9817C15.5674 23.9942 15.5962 24 15.6249 24C15.7045 24 15.7807 23.9542 15.8153 23.8771C16.0612 23.3292 16.3466 22.8208 16.6674 22.3263C19.5774 22.2517 22.2262 20.6329 23.6145 18.0571C23.6491 17.9925 23.6474 17.9146 23.6099 17.8513C23.572 17.7888 23.5041 17.75 23.4307 17.75H22.6591L24.0428 16.9592C24.0866 16.9342 24.1203 16.8937 24.1366 16.8463C24.4332 15.9837 24.5832 15.0962 24.5832 14.2083C24.5832 14.0933 24.4899 14 24.3749 14Z" fill="white"/>
</svg>
