<svg width="25" height="23" viewBox="0 0 25 23" fill="none" xmlns="http://www.w3.org/2000/svg">
<path d="M4.52588 9.70316C4.83008 9.98347 5.32617 9.98347 5.63037 9.70316L6.64062 8.77372C6.94531 8.49386 6.94531 8.03745 6.64062 7.75759L5.63037 6.82815H19.5312C20.8237 6.82815 21.875 7.79532 21.875 8.98441C21.875 9.57872 22.4009 10.0625 23.0469 10.0625H23.8281C24.4741 10.0625 25 9.57872 25 8.98441C25 6.21003 22.5469 3.95315 19.5312 3.95315H5.63037L6.64062 3.02372C6.94531 2.74386 6.94531 2.28745 6.64062 2.00759L5.63037 1.07815C5.32617 0.797842 4.83008 0.797842 4.52588 1.07815L0.114258 5.1364C-0.0380859 5.277 -0.0380859 5.50431 0.114258 5.64491L4.52588 9.70316Z" fill="white"/>
<path d="M20.4741 13.2969C20.1699 13.0166 19.6743 13.0166 19.3696 13.2969L18.3594 14.2263C18.0541 14.5072 18.0536 14.9611 18.3594 15.2424L19.3696 16.1719H5.46875C4.17627 16.1719 3.125 15.2047 3.125 14.0156C3.125 13.4213 2.59912 12.9375 1.95312 12.9375H1.17188C0.525879 12.9375 0 13.4213 0 14.0156C0 16.79 2.45313 19.0469 5.46875 19.0469H19.3696L18.3594 19.9763C18.0541 20.2572 18.0536 20.7111 18.3594 20.9924L19.3696 21.9219C19.6744 22.2022 20.1694 22.2022 20.4741 21.9219L24.8857 17.8636C25.0381 17.723 25.0381 17.4957 24.8857 17.3551L20.4741 13.2969Z" fill="white"/>
</svg>
