<svg width="22" height="22" viewBox="0 0 22 22" fill="none" xmlns="http://www.w3.org/2000/svg">
<g clip-path="url(#clip0)">
<path d="M8.72122 4.79943C8.49926 4.08128 7.8345 3.59161 7.08248 3.59161H5.22046C4.46645 3.59161 3.80001 4.08448 3.57951 4.8063L0.0722409 16.2835C-0.0807253 16.7821 0.0121629 17.3233 0.323061 17.7423C0.633073 18.1611 1.12336 18.4085 1.64482 18.4085C2.38394 18.4085 3.03203 17.9156 3.22977 17.2039L3.95084 14.6052H8.19351L8.97004 17.1877C9.18774 17.9124 9.85472 18.4085 10.6128 18.4085C11.1585 18.4085 11.6712 18.1493 11.9942 17.7105C12.3179 17.2714 12.4131 16.7049 12.2518 16.1844L8.72122 4.79943ZM4.43462 12.0995L5.31286 8.95532C5.55433 8.09795 5.77513 6.97744 5.99558 6.09769H6.03752C6.25806 6.97744 6.52342 8.07627 6.78599 8.95532L7.70964 12.0995H4.43462Z" fill="black"/>
<path d="M21.9515 16.0679V13.0074C21.9515 10.9379 21.0147 9.20947 18.0794 9.20947C16.9897 9.20947 16.0835 9.40926 15.4228 9.64461C14.9838 9.80116 14.7422 10.2702 14.8698 10.7183L14.8785 10.7478C14.9455 10.9837 15.1071 11.1816 15.3248 11.2955C15.5418 11.4095 15.7957 11.4296 16.0284 11.351C16.5095 11.1887 17.0612 11.0814 17.594 11.0814C18.9446 11.0814 19.197 11.7477 19.197 12.2156V12.3421C16.082 12.3237 14.0299 13.4216 14.0299 15.708C14.0299 17.1127 15.0919 18.4081 16.8751 18.4081C17.9186 18.4081 18.8177 18.0295 19.3946 17.3276H19.4477L19.5185 17.7127C19.572 18.0007 19.8228 18.2102 20.1162 18.2102H21.3917C21.5613 18.2102 21.7228 18.1398 21.8375 18.0158C21.9528 17.8918 22.0112 17.7252 21.9983 17.5565C21.9651 17.1231 21.9515 16.6029 21.9515 16.0679ZM19.2857 15.0058C19.2857 15.1676 19.2684 15.3299 19.2316 15.4737C19.0519 16.0318 18.4939 16.4818 17.8096 16.4818C17.1981 16.4818 16.7296 16.1399 16.7296 15.438C16.7296 14.3759 17.8463 14.0341 19.2857 14.0517V15.0058V15.0058Z" fill="black"/>
</g>
<defs>
<clipPath id="clip0">
<rect width="22" height="22" fill="white"/>
</clipPath>
</defs>
</svg>
