<svg width="32" height="32" viewBox="0 0 32 32" fill="none" xmlns="http://www.w3.org/2000/svg">
<path d="M4.26056 27.9389C4.48969 28.0639 9.94219 31 16 31C22.563 31 27.5483 28.0541 27.7572 27.9287C27.8313 27.8843 27.8926 27.8215 27.9351 27.7464C27.9776 27.6712 28 27.5863 28 27.5C28 23.4629 26.7621 19.7687 24.5143 17.0974C22.9419 15.2286 20.9691 13.9549 18.7931 13.3685C20.1251 12.7346 21.2018 11.6666 21.8465 10.3398C22.4911 9.01297 22.6653 7.50637 22.3404 6.06749C22.0154 4.62862 21.2108 3.34305 20.0586 2.422C18.9063 1.50096 17.4751 0.999216 16 0.999216C14.5249 0.999216 13.0937 1.50096 11.9414 2.422C10.7892 3.34305 9.98455 4.62862 9.65964 6.06749C9.33473 7.50637 9.50889 9.01297 10.1535 10.3398C10.7982 11.6666 11.8749 12.7346 13.2069 13.3685C11.0309 13.9549 9.05806 15.2288 7.48569 17.0974C5.23794 19.7687 4 23.4629 4 27.5C4 27.5898 4.0242 27.678 4.07005 27.7552C4.1159 27.8325 4.18171 27.8959 4.26056 27.9389ZM10.5 7.5C10.5 6.4122 10.8226 5.34883 11.4269 4.44436C12.0313 3.53989 12.8902 2.83494 13.8952 2.41866C14.9002 2.00238 16.0061 1.89346 17.073 2.10568C18.1399 2.3179 19.1199 2.84172 19.8891 3.61091C20.6583 4.3801 21.1821 5.36011 21.3943 6.427C21.6065 7.4939 21.4976 8.59976 21.0813 9.60476C20.6651 10.6097 19.9601 11.4687 19.0556 12.0731C18.1512 12.6774 17.0878 13 16 13C14.5418 12.9983 13.1438 12.4183 12.1127 11.3873C11.0816 10.3562 10.5017 8.95818 10.5 7.5ZM8.25081 17.7412C10.2812 15.3286 13.033 14 16 14C18.967 14 21.7188 15.3286 23.7492 17.7412C25.7917 20.1686 26.9402 23.5212 26.9977 27.2083C25.9278 27.7875 21.4818 30 16 30C10.9306 30 6.15625 27.7744 5.0025 27.1965C5.0625 23.5139 6.21044 20.166 8.25081 17.7412Z" fill="#545454"/>
</svg>
